<svg xmlns="http://www.w3.org/2000/svg" xmlns:xlink="http://www.w3.org/1999/xlink" width="447.1572" height="447.1571" viewBox="0 0 447.1572 447.1571"><defs><style>.cls-1{fill:none;}.cls-2{fill:#18243f;}.cls-3{fill:#f8b133;}.cls-4{fill:#009fb9;}.cls-5{fill:#c11724;}.cls-6{fill:#9b1918;}.cls-7{fill:#fbcb84;}.cls-8{clip-path:url(#clip-path);}.cls-9{fill:#fff;}</style><clipPath id="clip-path"><circle class="cls-1" cx="223.5786" cy="223.4107" r="51.179"/></clipPath></defs><g id="Layer_2" data-name="Layer 2"><g id="Layer_1-2" data-name="Layer 1"><path class="cls-2" d="M223.5785,445.6576A222.0788,222.0788,0,0,1,66.5453,66.5453,222.0787,222.0787,0,0,1,380.6122,380.6117,220.6251,220.6251,0,0,1,223.5785,445.6576Z"/><path class="cls-3" d="M223.5786,3c121.8221,0,220.5786,98.7564,220.5786,220.5786S345.4007,444.1571,223.5786,444.1571,3,345.4007,3,223.5786,101.7564,3,223.5786,3m0-3a223.6367,223.6367,0,0,0-87.0278,429.586A223.6357,223.6357,0,0,0,310.6064,17.5711,222.1824,222.1824,0,0,0,223.5786,0Z"/><circle class="cls-4" cx="223.5785" cy="223.5786" r="173.3795"/><path class="cls-3" d="M223.5786,52.1992A171.3794,171.3794,0,1,1,52.1992,223.5786,171.3794,171.3794,0,0,1,223.5786,52.1992m0-4A174.8421,174.8421,0,1,0,291.8453,61.983a174.2863,174.2863,0,0,0-68.2667-13.7838Z"/><polygon class="cls-5" points="223.579 59.168 182.438 131.637 223.579 131.637 223.579 59.168"/><polygon class="cls-6" points="223.579 59.168 264.719 131.637 223.579 131.637 223.579 59.168"/><polygon class="cls-7" points="223.579 59.168 169.311 110.58 180.045 132.592 182.438 131.637 223.579 59.168"/><polygon class="cls-3" points="223.579 59.168 277.846 110.58 267.113 132.592 264.719 131.637 223.579 59.168"/><polygon class="cls-5" points="96.395 121.343 126.823 198.922 152.714 166.949 96.395 121.343"/><polygon class="cls-6" points="96.395 121.343 178.604 134.977 152.714 166.949 96.395 121.343"/><polygon class="cls-7" points="96.395 121.343 102.198 195.872 126.06 201.383 126.823 198.922 96.395 121.343"/><polygon class="cls-3" points="96.395 121.343 170.501 111.524 180.853 133.719 178.604 134.977 96.395 121.343"/><polygon class="cls-5" points="64.675 259.312 144.114 284.486 135.56 244.245 64.675 259.312"/><polygon class="cls-6" points="64.675 259.312 127.007 204.003 135.56 244.245 64.675 259.312"/><polygon class="cls-7" points="64.675 259.312 126.246 301.704 145.546 286.629 144.114 284.486 64.675 259.312"/><polygon class="cls-3" points="64.675 259.312 103.681 195.541 127.444 201.463 127.007 204.003 64.675 259.312"/><polygon class="cls-5" points="151.935 370.789 221.492 324.897 184.835 306.219 151.935 370.789"/><polygon class="cls-6" points="151.935 370.789 148.179 287.542 184.835 306.219 151.935 370.789"/><polygon class="cls-7" points="151.935 370.789 223.628 349.618 224.058 325.132 221.492 324.897 151.935 370.789"/><polygon class="cls-3" points="151.935 370.789 126.923 300.344 146.48 285.604 148.179 287.542 151.935 370.789"/><polygon class="cls-5" points="350.762 121.343 320.334 198.922 294.443 166.949 350.762 121.343"/><polygon class="cls-6" points="350.762 121.343 268.553 134.977 294.443 166.949 350.762 121.343"/><polygon class="cls-7" points="350.762 121.343 344.959 195.872 321.097 201.383 320.334 198.922 350.762 121.343"/><polygon class="cls-3" points="350.762 121.343 276.656 111.524 266.304 133.719 268.553 134.977 350.762 121.343"/><polygon class="cls-5" points="382.482 259.312 303.043 284.486 311.597 244.245 382.482 259.312"/><polygon class="cls-6" points="382.482 259.312 320.15 204.003 311.597 244.245 382.482 259.312"/><polygon class="cls-7" points="382.482 259.312 320.911 301.704 301.611 286.629 303.043 284.486 382.482 259.312"/><polygon class="cls-3" points="382.482 259.312 343.476 195.541 319.713 201.463 320.15 204.003 382.482 259.312"/><polygon class="cls-5" points="295.222 370.789 225.665 324.897 262.322 306.219 295.222 370.789"/><polygon class="cls-6" points="295.222 370.789 298.978 287.542 262.322 306.219 295.222 370.789"/><polygon class="cls-7" points="295.222 370.789 223.529 349.618 223.099 325.132 225.665 324.897 295.222 370.789"/><polygon class="cls-3" points="295.222 370.789 320.234 300.344 300.677 285.604 298.978 287.542 295.222 370.789"/><circle class="cls-2" cx="225.1638" cy="223.5785" r="97.7861" transform="translate(-31.5949 410.0216) rotate(-80.7825)"/><path class="cls-3" d="M225.1637,127.765A95.8136,95.8136,0,1,1,129.35,223.5786a95.8135,95.8135,0,0,1,95.8136-95.8136m0-3.9453a99.7589,99.7589,0,1,0,99.7589,99.7589A99.8718,99.8718,0,0,0,225.1637,123.82Z"/><circle class="cls-3" cx="223.5786" cy="223.5786" r="67.3061"/><g class="cls-8"><rect class="cls-4" x="220.3167" y="220.1488" width="6.5237" height="6.5237" transform="translate(-92.4905 223.5294) rotate(-45)"/><rect class="cls-4" x="220.1488" y="235.4159" width="6.5237" height="6.5237" transform="translate(-103.3352 227.8823) rotate(-45)"/><rect class="cls-4" x="220.3167" y="204.9128" width="6.5237" height="6.5237" transform="translate(-81.7171 219.0669) rotate(-45)"/><rect class="cls-4" x="228.0031" y="212.4624" width="6.5237" height="6.5237" transform="translate(-84.8041 226.7132) rotate(-45)"/><rect class="cls-4" x="235.5527" y="220.012" width="6.5237" height="6.5237" transform="translate(-87.9313 234.2628) rotate(-45)"/><rect class="cls-4" x="227.8663" y="227.6984" width="6.5237" height="6.5237" transform="translate(-95.6177 231.079) rotate(-45)"/><rect class="cls-4" x="212.6303" y="212.4624" width="6.5237" height="6.5237" transform="translate(-89.3067 215.843) rotate(-45)"/><rect class="cls-4" x="204.9128" y="220.1799" width="6.5237" height="6.5237" transform="translate(-97.0242 212.6463) rotate(-45)"/><rect class="cls-4" x="212.5992" y="227.8663" width="6.5237" height="6.5237" transform="translate(-100.208 220.3327) rotate(-45)"/><polygon class="cls-4" points="223.579 203.562 215.905 195.888 214.811 196.982 200.768 182.939 201.942 181.765 190.831 170.654 257.051 170.654 245.181 181.912 246.225 182.956 232.366 196.814 231.192 195.64 223.579 203.562"/><polygon class="cls-4" points="223.476 243.459 231.15 251.132 232.244 250.038 246.287 264.081 245.113 265.255 256.224 276.366 190.004 276.366 201.874 265.108 200.83 264.065 214.689 250.206 215.863 251.38 223.476 243.459"/><polygon class="cls-4" points="243.476 223.561 251.149 215.888 250.055 214.794 264.098 200.751 265.272 201.925 276.384 190.813 276.384 257.034 265.125 245.164 264.082 246.207 250.223 232.349 251.397 231.175 243.476 223.561"/><polygon class="cls-4" points="203.579 223.459 195.906 231.132 197 232.226 182.957 246.269 181.783 245.095 170.671 256.207 170.671 189.987 181.93 201.856 182.973 200.813 196.832 214.672 195.658 215.845 203.579 223.459"/><polygon class="cls-4" points="205.141 215.724 208.118 212.748 203.562 208.192 204.875 206.879 190.911 192.914 189.61 194.214 182.768 187.372 179.058 191.082 186.707 197.124 185.483 198.348 199.404 212.269 200.552 211.122 205.141 215.724"/><polygon class="cls-4" points="212.803 208.062 215.78 205.085 211.224 200.53 212.537 199.216 198.573 185.252 197.272 186.552 190.43 179.71 186.72 183.42 194.369 189.462 193.145 190.686 207.066 204.607 208.214 203.46 212.803 208.062"/><polygon class="cls-4" points="241.904 215.724 238.927 212.748 243.483 208.192 242.17 206.879 256.134 192.914 257.434 194.214 264.277 187.372 267.987 191.082 260.338 197.124 261.561 198.348 247.64 212.269 246.493 211.122 241.904 215.724"/><polygon class="cls-4" points="234.242 208.062 231.265 205.085 235.821 200.53 234.508 199.216 248.472 185.252 249.772 186.552 256.615 179.71 260.324 183.42 252.676 189.462 253.899 190.686 239.978 204.607 238.831 203.46 234.242 208.062"/><polygon class="cls-4" points="205.141 231.159 208.118 234.136 203.562 238.692 204.875 240.005 190.911 253.969 189.61 252.669 182.768 259.512 179.058 255.802 186.707 249.759 185.483 248.535 199.404 234.614 200.552 235.762 205.141 231.159"/><polygon class="cls-4" points="212.803 238.821 215.78 241.798 211.224 246.354 212.537 247.667 198.573 261.631 197.272 260.331 190.43 267.174 186.72 263.464 194.369 257.421 193.145 256.197 207.066 242.276 208.214 243.424 212.803 238.821"/><polygon class="cls-4" points="241.904 231.159 238.927 234.136 243.483 238.692 242.17 240.005 256.134 253.969 257.434 252.669 264.277 259.512 267.987 255.802 260.338 249.759 261.561 248.535 247.64 234.614 246.493 235.762 241.904 231.159"/><polygon class="cls-4" points="234.242 238.821 231.265 241.798 235.821 246.354 234.508 247.667 248.472 261.631 249.772 260.331 256.615 267.174 260.324 263.464 252.676 257.421 253.899 256.197 239.978 242.276 238.831 243.424 234.242 238.821"/></g><path class="cls-9" d="M223.5786,162.34A61.2385,61.2385,0,1,1,162.34,223.5786,61.3078,61.3078,0,0,1,223.5786,162.34m0-1.9894a63.2279,63.2279,0,1,0,63.2278,63.2279,63.2279,63.2279,0,0,0-63.2278-63.2279Z"/><polygon class="cls-9" points="214.43 162.849 215.24 167.561 217.522 167.119 217.007 162.112 214.43 162.849"/><polygon class="cls-9" points="209.172 163.877 210.389 168.501 212.625 167.862 211.675 162.919 209.172 163.877"/><polygon class="cls-9" points="204.023 165.36 205.639 169.86 207.81 169.029 206.433 164.187 204.023 165.36"/><polygon class="cls-9" points="199.024 167.286 201.026 171.628 203.116 170.61 201.322 165.908 199.024 167.286"/><polygon class="cls-9" points="194.211 169.64 196.584 173.791 198.577 172.595 196.381 168.067 194.211 169.64"/><polygon class="cls-9" points="189.622 172.405 192.347 176.333 194.229 174.968 191.646 170.649 189.622 172.405"/><polygon class="cls-9" points="185.291 175.559 188.348 179.235 190.104 177.711 187.154 173.633 185.291 175.559"/><polygon class="cls-9" points="181.251 179.079 184.617 182.475 186.234 180.803 182.94 176.998 181.251 179.079"/><polygon class="cls-9" points="177.534 182.937 181.183 186.027 182.648 184.221 179.035 180.717 177.534 182.937"/><polygon class="cls-9" points="174.167 187.105 178.072 189.865 179.373 187.938 175.469 184.762 174.167 187.105"/><polygon class="cls-9" points="171.176 191.55 175.307 193.959 176.435 191.927 172.269 189.103 171.176 191.55"/><polygon class="cls-9" points="168.584 196.24 172.909 198.279 173.856 196.156 169.459 193.706 168.584 196.24"/><polygon class="cls-9" points="166.411 201.137 170.897 202.791 171.655 200.594 167.062 198.537 166.411 201.137"/><polygon class="cls-9" points="164.672 206.205 169.285 207.462 169.85 205.207 165.094 203.558 164.672 206.205"/><polygon class="cls-9" points="163.382 211.405 168.087 212.255 168.453 209.959 163.572 208.731 163.382 211.405"/><polygon class="cls-9" points="162.55 216.697 167.311 217.135 167.476 214.816 162.506 214.018 162.55 216.697"/><polygon class="cls-9" points="162.183 222.043 166.964 222.063 166.925 219.739 161.905 219.377 162.183 222.043"/><polygon class="cls-9" points="162.282 227.399 167.047 227.003 166.806 224.691 161.774 224.768 162.282 227.399"/><polygon class="cls-9" points="162.849 232.727 167.561 231.917 167.119 229.635 162.112 230.15 162.849 232.727"/><polygon class="cls-9" points="163.877 237.985 168.501 236.768 167.862 234.533 162.919 235.482 163.877 237.985"/><polygon class="cls-9" points="165.36 243.134 169.86 241.518 169.029 239.347 164.187 240.724 165.36 243.134"/><polygon class="cls-9" points="167.286 248.134 171.628 246.132 170.61 244.041 165.908 245.835 167.286 248.134"/><polygon class="cls-9" points="169.64 252.946 173.791 250.574 172.595 248.58 168.067 250.777 169.64 252.946"/><polygon class="cls-9" points="172.405 257.536 176.333 254.81 174.968 252.928 170.649 255.511 172.405 257.536"/><polygon class="cls-9" points="175.559 261.866 179.235 258.809 177.711 257.053 173.633 260.003 175.559 261.866"/><polygon class="cls-9" points="179.079 265.906 182.475 262.54 180.803 260.923 176.998 264.217 179.079 265.906"/><polygon class="cls-9" points="182.937 269.623 186.027 265.974 184.221 264.509 180.717 268.122 182.937 269.623"/><polygon class="cls-9" points="187.105 272.99 189.865 269.085 187.938 267.784 184.762 271.689 187.105 272.99"/><polygon class="cls-9" points="191.55 275.981 193.959 271.851 191.927 270.722 189.103 274.889 191.55 275.981"/><polygon class="cls-9" points="196.24 278.573 198.279 274.248 196.156 273.301 193.706 277.698 196.24 278.573"/><polygon class="cls-9" points="201.137 280.746 202.791 276.261 200.594 275.502 198.537 280.096 201.137 280.746"/><polygon class="cls-9" points="206.205 282.485 207.462 277.872 205.207 277.308 203.558 282.063 206.205 282.485"/><polygon class="cls-9" points="211.405 283.775 212.255 279.07 209.959 278.704 208.731 283.585 211.405 283.775"/><polygon class="cls-9" points="216.697 284.607 217.135 279.846 214.816 279.682 214.018 284.651 216.697 284.607"/><polygon class="cls-9" points="222.043 284.974 222.063 280.193 219.739 280.232 219.377 285.252 222.043 284.974"/><polygon class="cls-9" points="227.399 284.875 227.003 280.11 224.691 280.351 224.768 285.384 227.399 284.875"/><polygon class="cls-9" points="232.727 284.308 231.917 279.596 229.635 280.038 230.15 285.045 232.727 284.308"/><polygon class="cls-9" points="237.985 283.28 236.768 278.656 234.533 279.295 235.482 284.238 237.985 283.28"/><polygon class="cls-9" points="243.134 281.797 241.518 277.297 239.347 278.129 240.724 282.97 243.134 281.797"/><polygon class="cls-9" points="248.134 279.871 246.132 275.529 244.041 276.547 245.835 281.249 248.134 279.871"/><polygon class="cls-9" points="252.946 277.517 250.574 273.366 248.58 274.562 250.777 279.09 252.946 277.517"/><polygon class="cls-9" points="257.536 274.752 254.81 270.824 252.928 272.189 255.511 276.508 257.536 274.752"/><polygon class="cls-9" points="261.866 271.598 258.809 267.922 257.053 269.446 260.003 273.524 261.866 271.598"/><polygon class="cls-9" points="265.906 268.078 262.54 264.683 260.923 266.354 264.217 270.159 265.906 268.078"/><polygon class="cls-9" points="269.623 264.22 265.974 261.131 264.509 262.936 268.122 266.44 269.623 264.22"/><polygon class="cls-9" points="272.99 260.052 269.085 257.293 267.784 259.219 271.689 262.395 272.99 260.052"/><polygon class="cls-9" points="275.981 255.607 271.851 253.198 270.722 255.231 274.889 258.054 275.981 255.607"/><polygon class="cls-9" points="278.573 250.918 274.248 248.878 273.301 251.001 277.698 253.451 278.573 250.918"/><polygon class="cls-9" points="280.746 246.021 276.261 244.366 275.502 246.563 280.096 248.62 280.746 246.021"/><polygon class="cls-9" points="282.485 240.953 277.872 239.695 277.308 241.95 282.063 243.599 282.485 240.953"/><polygon class="cls-9" points="283.775 235.752 279.07 234.902 278.704 237.198 283.585 238.426 283.775 235.752"/><polygon class="cls-9" points="284.607 230.46 279.846 230.022 279.682 232.341 284.651 233.139 284.607 230.46"/><polygon class="cls-9" points="284.974 225.115 280.193 225.094 280.232 227.418 285.252 227.78 284.974 225.115"/><polygon class="cls-9" points="284.875 219.758 280.11 220.154 280.351 222.466 285.384 222.389 284.875 219.758"/><polygon class="cls-9" points="284.308 214.43 279.596 215.24 280.038 217.522 285.045 217.007 284.308 214.43"/><polygon class="cls-9" points="283.28 209.172 278.656 210.389 279.295 212.625 284.238 211.675 283.28 209.172"/><polygon class="cls-9" points="281.797 204.023 277.297 205.639 278.129 207.81 282.97 206.433 281.797 204.023"/><polygon class="cls-9" points="279.871 199.024 275.529 201.026 276.547 203.116 281.249 201.322 279.871 199.024"/><polygon class="cls-9" points="277.517 194.211 273.366 196.584 274.562 198.577 279.09 196.381 277.517 194.211"/><polygon class="cls-9" points="274.752 189.622 270.824 192.347 272.189 194.229 276.508 191.646 274.752 189.622"/><polygon class="cls-9" points="271.598 185.291 267.922 188.348 269.446 190.104 273.524 187.154 271.598 185.291"/><polygon class="cls-9" points="268.078 181.251 264.683 184.617 266.354 186.234 270.159 182.94 268.078 181.251"/><polygon class="cls-9" points="264.22 177.534 261.131 181.183 262.936 182.648 266.44 179.035 264.22 177.534"/><polygon class="cls-9" points="260.052 174.167 257.293 178.072 259.219 179.373 262.395 175.469 260.052 174.167"/><polygon class="cls-9" points="255.607 171.176 253.198 175.307 255.231 176.435 258.054 172.269 255.607 171.176"/><polygon class="cls-9" points="250.918 168.584 248.878 172.909 251.001 173.856 253.451 169.459 250.918 168.584"/><polygon class="cls-9" points="246.021 166.411 244.366 170.897 246.563 171.655 248.62 167.062 246.021 166.411"/><polygon class="cls-9" points="240.953 164.672 239.695 169.285 241.95 169.849 243.599 165.094 240.953 164.672"/><polygon class="cls-9" points="235.752 163.382 234.902 168.087 237.198 168.453 238.426 163.572 235.752 163.382"/><polygon class="cls-9" points="230.46 162.55 230.022 167.311 232.341 167.476 233.139 162.506 230.46 162.55"/><polygon class="cls-9" points="225.115 162.183 225.094 166.964 227.418 166.925 227.78 161.905 225.115 162.183"/><polygon class="cls-9" points="219.758 162.282 220.154 167.047 222.466 166.806 222.389 161.774 219.758 162.282"/><path class="cls-9" d="M35.2436,155.2946l7.5327-3.2056.9107-2.5293,5.7812,2.082-.9433,2.6192-3.252-1.1709-.4067,1.1289-9.003,3.748-.6508,1.8067,6.7832,2.4175-1.0005,2.7778L25.187,159.2755l1-2.7778,6.5634,2.39.626-1.7393-4.4326-8.3057,1.2607-3.5Z"/><path class="cls-9" d="M36.9633,130.4748l1.24-2.439,18.4331,1.0815-1.4146,2.7808-4.3877-.32-3.601,7.081,2.832,3.3789-1.3711,2.6958Zm11.05.88-7.3066-.4575,4.6846,5.6133Z"/><path class="cls-9" d="M48.4179,114.9245a9.7158,9.7158,0,0,1,1.5523-7.1621c2.12-3.1734,4.9043-4.1421,7.18-2.6221l.02.0137c1.7363,1.16,2.1079,2.7651,1.5664,4.7417,1.5791-1.4566,3.3442-1.9805,5.24-.7134l.02.0132c2.335,1.5605,2.6778,4.85.2906,8.4218a10.0935,10.0935,0,0,1-5.89,4.3213l-.8027-2.644a8.053,8.053,0,0,0,4.5371-3.2041c1.2266-1.836,1.3154-3.6533.0181-4.52l-.02-.0137c-1.2773-.8535-2.7758-.1226-4.09,1.8867l-1.68,2.5147-2.0757-1.3873,1.7071-2.5546c1.1333-1.6963,1.1284-3.2876-.1489-4.1412l-.02-.0131c-1.1772-.7867-2.5761-.2491-3.6963,1.4272a7.6683,7.6683,0,0,0-1.0307,5.2588Z"/><path class="cls-9" d="M64.0786,89.2765l1.7773-2.08L83.5249,92.57,81.498,94.942l-4.1914-1.34-5.1621,6.0405,1.9614,3.9492-1.9648,2.3Zm10.5371,3.4473-6.9971-2.1582,3.2388,6.5561Z"/><path class="cls-9" d="M88.747,75.4933l8.1612.6694,1.9843-1.8149,4.1485,4.5352-2.0552,1.88-2.3335-2.5507-.8857.81-9.7154-.8745L86.6337,79.444l4.8794,5.2983-2.1792,1.9932L77.9907,74.3346,80.17,72.3415l4.6977,5.1713,1.3643-1.2475-.0567-9.417,2.7461-2.5117Z"/><path class="cls-9" d="M100.6972,65.6847l-.0283-.039a8.4966,8.4966,0,0,1,1.9277-12.1016,8.774,8.774,0,0,1,6.8843-1.7383l-.2607,2.8809a6.7152,6.7152,0,0,0-5.043,1.0908,5.63,5.63,0,0,0-1.0244,8.0185l.0278.0391a5.6613,5.6613,0,0,0,7.979,1.5859,6.6044,6.6044,0,0,0,2.65-4.5742l2.6611.4488a8.56,8.56,0,0,1-3.789,6.4008A8.45,8.45,0,0,1,100.6972,65.6847Z"/><path class="cls-9" d="M122.019,44.7252l-4.6724,2.6133L116.0107,44.95l11.9209-6.6679,1.3359,2.3882-4.6718,2.6132,6.8671,12.2769-2.5766,1.4414Z"/><path class="cls-9" d="M140.6557,32.2374l2.5171-1.0712L156.6,43.8371l-2.87,1.2216-3.1562-3.0639-7.3081,3.1113-.0015,4.4082-2.7817,1.1841Zm7.8994,7.774-5.3037-5.0449-.0176,7.31Z"/><path class="cls-9" d="M159.8105,25.0353l2.84-.8071,1.9092,6.7182,7.711-2.1914-1.9092-6.7182,2.8393-.8072L177.7934,37.39l-2.8393.8071-1.9356-6.8105-7.7109,2.1914,1.9355,6.8105-2.84.8071Z"/><path class="cls-9" d="M198.33,16.6579l6.5948-.6109c3.9189-.3628,6.562,1.6338,6.874,5.0029l.0044.0479c.3452,3.7275-2.458,5.9878-6.1621,6.3306l-3.3213.3076.498,5.3764-2.9394.272Zm7.1612,8.1093c2.2221-.206,3.4931-1.5766,3.3315-3.3213l-.0044-.0473c-.1836-1.9834-1.686-2.8565-3.8847-2.6528l-3.417.3164.5576,6.0214Z"/><path class="cls-9" d="M221.5629,15.1515l12.4571.23-.0489,2.64-9.5043-.1753-.0806,4.3682,8.4248.1553-.0488,2.6645-8.4253-.1552-.0826,4.4882,9.625.1773-.0488,2.64-12.5771-.2314Z"/><path class="cls-9" d="M243.0473,24.4762l.0069-.0473a8.4968,8.4968,0,0,1,9.7236-7.4581A8.7749,8.7749,0,0,1,258.97,20.445l-2.1709,1.9116a6.7136,6.7136,0,0,0-4.4112-2.6773,5.6293,5.6293,0,0,0-6.2588,5.1153l-.0068.0473a5.6606,5.6606,0,0,0,4.7,6.64,6.605,6.605,0,0,0,5.07-1.4966l1.6231,2.1563a8.5611,8.5611,0,0,1-7.1534,2.0395A8.4505,8.4505,0,0,1,243.0473,24.4762Z"/><path class="cls-9" d="M269.726,20.2477l13.4,3.5039-4.251,16.2568-2.88-.7529L279.5668,25.6l-7.664-2.0044-3.5713,13.6557-2.8564-.747Z"/><path class="cls-9" d="M289.7387,43.7155l5.252-4.14L292.8,26.8624l3.1231,1.2369,1.5566,9.6235,7.3223-6.1069,3.0557,1.21-15.0625,12.1Z"/><path class="cls-9" d="M316.7885,37.109,327.5161,42.9l-1.2539,2.3227-8.1729-4.4111-1.96,3.6323,4.0967,2.2114c3.2735,1.7666,4.5664,4.3736,3.05,7.1822l-.0107.021c-1.5508,2.872-4.6358,3.3339-7.9727,1.5327l-6.4834-3.4991ZM316.61,53.1022c1.69.9116,3.2383.8208,4.002-.5942l.0117-.021c.7637-1.4151.0185-2.6621-1.6914-3.5855l-4.0342-2.1772-2.2793,4.2236Z"/><path class="cls-9" d="M355.6674,84.8288l8.1768-8.98-14.92,2.8388-1.8994-1.729,11.3115-12.4218,2.1826,1.9873-7.9658,8.749,14.5146-2.7862,2.0938,1.9068L357.85,86.8166Z"/><path class="cls-9" d="M377.3129,82.84l1.9239,2.2393-5.3135,4.5332,1.2051,1.4018,9.41.2359,2.4239,2.8217-11.1416-.52-1.335,11.7783-2.4707-2.8764,1.1758-9.68-1.251-1.4565-5.4463,4.71L364.57,93.7877Z"/><path class="cls-9" d="M396.1752,106.6876l1.5206,2.2735-9.9522,15.5444-1.7344-2.5923,2.4239-3.67-4.4141-6.6011-4.3311.8179-1.68-2.5132Zm-6.1679,9.2046,3.97-6.1474-7.1846,1.3408Z"/><path class="cls-9" d="M398.394,126.3312l.042-.0215a8.4985,8.4985,0,0,1,11.667,3.7573,8.7806,8.7806,0,0,1,.664,7.07l-2.8076-.6983a6.7149,6.7149,0,0,0-.3066-5.1514,5.6306,5.6306,0,0,0-7.7686-2.24l-.042.0215a5.6619,5.6619,0,0,0-2.789,7.644,6.6057,6.6057,0,0,0,4.1152,3.3194l-.8506,2.5615a8.56,8.56,0,0,1-5.747-4.7246A8.4513,8.4513,0,0,1,398.394,126.3312Z"/><path class="cls-9" d="M417.185,145.9826l.9736,2.7871-5.2793,1.8452,1.1719,3.354c1.291,3.6934.3115,6.7817-3.0429,7.9541l-.045.0156c-3.3535,1.1719-6.2031-.5781-7.5566-4.4531l-2.083-5.959Zm-11.2168,10.684c.7285,2.0845,2.17,3.0811,3.96,2.4556l.0224-.0078c1.79-.626,2.2989-2.2275,1.5616-4.3345l-1.1475-3.2856-5.5293,1.9321Zm16.42,4.2032.9815,2.81-15.8613,5.5435-.9815-2.81Z"/><path class="cls-9" d="M339.8676,71.43l9.9346-14.4083-9.1979-6.34s-8.0559,11.4608-11.2076,10.4005l-1.0968-.95-1.5617,2.098s4.2072,6.3716,11.7776-3.5132l3.1751-3.8985,3.8367,2.5359-8.3093,12.343Z"/><path class="cls-9" d="M20.2392,228.6408l-.1435-4.4644,2.2973-.0737.1387,4.3076,10.6064-7.45.1226,3.812-7.9038,5.3506,8.2334,4.9092.1186,3.6816L22.644,231.9083l.14,4.334-2.2978.0743-.1426-4.4385-5.1431.165-.104-3.2373Z"/><path class="cls-9" d="M36.8422,273.49l-1.5483-5.6143,2.87-.792L42.1147,281.41l-2.8706.791-1.5479-5.6142-14.7539,4.0683-.854-3.0967Z"/><path class="cls-9" d="M44.1362,295.423l-2.2119-5.39,2.7553-1.1308,5.6436,13.7529-2.7554,1.1309-2.2119-5.3906-14.1636,5.8125-1.22-2.9727Z"/><path class="cls-9" d="M54.2114,310.9357l1.6269,2.7705-5.2475,3.082,1.958,3.333c2.1567,3.6709,1.7612,7.1748-1.5723,9.1329l-.0449.0263c-3.3335,1.958-6.7441.69-9.0064-3.1611l-3.4794-5.9229Zm-9.7241,13.7695c1.2172,2.0723,2.9663,2.8321,4.7456,1.7871l.0224-.0136c1.7793-1.045,1.9844-2.8623.7539-4.9561l-1.9184-3.2656-5.4951,3.2275Zm18.416,1.0274,1.64,2.7929-15.7651,9.26-1.6407-2.792Z"/><path class="cls-9" d="M68.6567,348.6115l-1.29,8.8154,1.8339,2.28-5.2109,4.1914L62.09,361.5373,65.021,359.18l-.8184-1.0175,1.62-10.4893-1.31-1.6289-6.09,4.9326-2.0137-2.5039,14.2486-11.4609,2.0136,2.5039L66.7319,344.26l1.2607,1.5674,10.23.5889,2.5376,3.1552Z"/><path class="cls-9" d="M97.58,377.71l.5332,8.8916,2.2593,1.8574-4.2461,5.1641-2.34-1.9238,2.3882-2.9053-1.0083-.8291-.5513-10.5957-1.6138-1.3272-4.9555,6.0684-2.4815-2.04,11.61-14.1211,2.4814,2.04-4.8472,5.8535,1.5538,1.2774,10.1318-1.5079,3.1265,2.5713Z"/><path class="cls-9" d="M122.6049,384.6876l2.5342,1.5635-2.8232,19.8994-2.89-1.7832.74-4.7314-7.3589-4.541-3.919,2.7695-2.8012-1.7285ZM120.66,396.5949l1.1509-7.8848-6.5088,4.5791Z"/><path class="cls-9" d="M132.3554,411.2033l5.9444-4.2051-1.6656-13.9463,3.3262,1.5205,1.15,10.5518,8.3057-6.2276,3.2549,1.4883L135.61,412.6916Z"/><path class="cls-9" d="M161.2133,403.3615l3.0445,1.0273L158.415,421.713l-3.044-1.0263Z"/><path class="cls-9" d="M174.6982,407.6242l14.7119,3.2744-3.9731,17.8486-3.1617-.7041,3.3374-14.9922-8.414-1.873L173.8613,426.17l-3.1362-.6983Z"/><path class="cls-9" d="M198.2065,421.5587l.0044-.0517a9.2477,9.2477,0,0,1,10.1777-8.6211,9.5529,9.5529,0,0,1,6.916,3.4492l-2.2592,2.1934a7.31,7.31,0,0,0-4.9366-2.6778,6.1281,6.1281,0,0,0-6.5351,5.8916l-.0044.0518a6.1621,6.1621,0,0,0,5.46,6.9707,7.1885,7.1885,0,0,0,5.4331-1.8955l1.878,2.2588a9.3165,9.3165,0,0,1-7.669,2.5957A9.1989,9.1989,0,0,1,198.2065,421.5587Z"/><path class="cls-9" d="M225.2836,413.7892l3.2129-.0547.3106,18.2862-3.2139.0546Z"/><path class="cls-9" d="M238.7534,415.95a10.5782,10.5782,0,0,1,7.0342-3.7607c4.1269-.4775,6.8925,1.1484,7.2353,4.1074l.0029.0254c.2618,2.2588-.8076,3.6973-2.8291,4.6416,2.3213.2842,4,1.3779,4.2862,3.8438l.0029.0263c.3516,3.0362-2.1357,5.64-6.7813,6.1778a10.9952,10.9952,0,0,1-7.7363-1.84l1.6279-2.5293a8.7618,8.7618,0,0,0,5.8555,1.5049c2.3877-.2764,3.958-1.4844,3.7627-3.1719l-.0029-.0254c-.1924-1.6611-1.8555-2.39-4.4483-2.0625l-3.27.378-.3135-2.6992,3.3223-.3848c2.207-.2549,3.5225-1.3809,3.33-3.042l-.003-.0264c-.1767-1.5312-1.6093-2.3125-3.789-2.06a8.342,8.342,0,0,0-5.0879,2.8515Z"/><path class="cls-9" d="M289.2417,402.1466l3.0068-1.1357,6.4619,17.1113-3.0068,1.1358Z"/><path class="cls-9" d="M302.3823,396.8839l2.8711-1.4433,3.3916,6.8056,1.7978-.9033,2.7246-9.88,3.6192-1.8183-3.4815,11.6338,12.0918,4.5088-3.6884,1.8535-9.917-3.7881-1.8682.9385,3.5439,6.9921-2.8711,1.4434Z"/><path class="cls-9" d="M336.06,377.12l2.5176-1.9991,4.708,5.9707,1.5752-1.2509.6533-10.2286,3.1709-2.5185-1.0342,12.1,12.7578,1.9473-3.2334,2.5674-10.4814-1.6856-1.6367,1.3,4.8955,6.1231-2.5166,1.998Z"/><path class="cls-9" d="M360.3237,368.9894l-.0371-.0371a9.3854,9.3854,0,0,1-.1358-13.4668,9.2833,9.2833,0,0,1,13.39-.3184l.0381.0362a9.3863,9.3863,0,0,1,.1357,13.4668A9.2843,9.2843,0,0,1,360.3237,368.9894Zm10.95-11.3271-.0381-.0362a6.2267,6.2267,0,0,0-8.9795-.0322,6.1559,6.1559,0,0,0,.335,8.8994l.038.0361a6.2274,6.2274,0,0,0,8.9795.0332A6.1577,6.1577,0,0,0,371.2739,357.6623Z"/><path class="cls-9" d="M373.146,341.3937l1.99-2.7842,10.2734.5029-3.7988-9.5576,1.9912-2.7841,14.8789,10.6376-1.87,2.6153-10.67-7.63,3.6552,9.7129-.06.085-10.3-.33,10.6279,7.5986-1.8388,2.5723Z"/><path class="cls-9" d="M411.0874,314.9054l-11.7432-6.0683,7.1855,14.8877-1.2832,2.4834L389,317.8126l1.4756-2.8544,11.4414,5.913-7.0156-14.4765,1.415-2.7393,16.2461,8.3955Z"/><path class="cls-9" d="M404.76,290.714l-1.9805,5.4785L399.979,295.18l5.0537-13.9775,2.8,1.0117-1.9805,5.4785,14.3965,5.2041-1.0928,3.0215Z"/><path class="cls-9" d="M407.5756,272.2843l3.0176-13.2177,2.8008.64-2.3018,10.085,4.6348,1.0576,2.041-8.9385,2.8262.6455-2.04,8.9385,4.7617,1.0879,2.332-10.2129,2.8008.64-3.0459,13.3448Z"/><path class="cls-9" d="M415.5376,245.2189l-.5958,5.7939-2.9628-.3037,1.5195-14.7861,2.9629.3047-.5957,5.7949,15.2275,1.5645-.3281,3.1962Z"/><path class="cls-9" d="M413.7221,226.1076l.0528-3.2129,18.2861.2988-.0527,3.2129Z"/><path class="cls-9" d="M18.9516,263.5373l18.6735-2.8606-1.8277-11.9192s-14.967,2.1547-16.467-1.1062l-.0653-1.5652-2.8043.3261S14.57,254.434,27.939,253.0644l5.4131-.3913.8478,4.8913-15.8478,2.6087Z"/><path class="cls-9" d="M142.7387,259.0451l-.749-2.01,4.7554-1.7725-2.0332-5.458-4.7559,1.7715-.7485-2.01,11.4394-4.2618.7491,2.01-4.8213,1.7959,2.0337,5.459,4.8208-1.7959.749,2.01Z"/><path class="cls-9" d="M135.3715,224.154l.0332-1.9864,12.3741-5.1626-.0376,2.2652-2.9654,1.188-.0962,5.7675,2.9244,1.3037-.0367,2.1963Zm7.4917-2.9429-4.914,2.0273,4.8442,2.1719Z"/><path class="cls-9" d="M139.353,196.9582l.8359-2.125,6.7271-1.3438-4.01-5.5659.836-2.125,11.354,4.4648-.7847,1.9951-8.1426-3.2021,3.9434,5.69-.0259.0649-6.7168,1.46,8.11,3.189-.7715,1.9624Z"/><path class="cls-9" d="M155.2353,167.5573l1.4844-1.5489,2.9331,2.8125,1.7866-1.8632c1.9673-2.0518,4.29-2.4336,6.1533-.6475l.0254.0244c1.8628,1.7862,1.6675,4.208-.3965,6.36l-3.1743,3.311Zm10.6123,3.748c1.1109-1.1577,1.2813-2.4194.2871-3.373l-.0127-.0122c-.9946-.9536-2.1992-.7554-3.3218.415l-1.75,1.8257,3.0718,2.9448Zm-2.6826-12.019,1.4966-1.5611,8.812,8.4493-1.4966,1.5605Z"/><path class="cls-9" d="M184.3886,151.38l-.0146-.0312a6.1722,6.1722,0,0,1,3.0615-8.3594,6.3733,6.3733,0,0,1,5.15-.2793l-.5874,2.0171a4.8808,4.8808,0,0,0-3.7476.0747,4.0908,4.0908,0,0,0-1.8486,5.5742l.0146.0318a4.1131,4.1131,0,0,0,5.4678,2.2431,4.7978,4.7978,0,0,0,2.5269-2.8916l1.8349.6909a6.2179,6.2179,0,0,1-3.5937,4.0352A6.1389,6.1389,0,0,1,184.3886,151.38Z"/><path class="cls-9" d="M261.895,144.173l1.7793.8857-.668,13.397-2.0293-1.01.2041-3.1894-5.166-2.5708-2.4365,2.0786-1.9668-.9785Zm-.5694,8.0322.2862-5.31-4.0479,3.4384Z"/><path class="cls-9" d="M281.2807,174.2633l6.4629-6.0068L276.77,169.41l-1.27-1.3667,8.94-8.31,1.46,1.5713-6.2969,5.8526,10.6777-1.14,1.4,1.5074-8.94,8.31Zm7.1524-15.0991,1.0214,1.0982a1.7552,1.7552,0,0,0,2.0655,2.2221l1.0205,1.0987c-1.2061.9306-2.625.6069-3.7647-.6192S287.4174,160.299,288.4331,159.1642Z"/><path class="cls-9" d="M303.019,185.3117l3.4258,8.17-1.7686.7417-2.61-6.2241-2.7666,1.16,1.3086,3.12c1.0449,2.4927.5869,4.5572-1.5518,5.4541l-.0156.0069c-2.1875.917-4.1436-.23-5.209-2.77l-2.07-4.9375Zm-7.3984,8.9648c.54,1.2866,1.457,1.9419,2.5351,1.49l.0156-.0069c1.0782-.4516,1.2256-1.497.68-2.8l-1.2881-3.0718-3.2168,1.3487Z"/><path class="cls-9" d="M311.4067,214.5031l.0547,2.1435-4.06.1031.0654,2.5791c.0713,2.84-1.292,4.7583-3.8711,4.8237l-.0351.001c-2.5781.0654-4.16-1.7779-4.2354-4.7574l-.1162-4.583Zm.291,11.4492.0547,2.16-12.1973.31-.0556-2.16Zm-10.4189-6.5537c.04,1.6035.8164,2.6123,2.1923,2.5771h.0176c1.377-.0351,2.084-1.03,2.043-2.65l-.0645-2.5263-4.2519.1079Z"/><path class="cls-9" d="M308.0014,249.1134l-.7373,2.0147L302.5,249.383l-2.003,5.4677,4.7647,1.7451-.7373,2.0137-11.461-4.1972.7373-2.0137,4.83,1.7685,2.003-5.4677-4.83-1.77.7373-2.0136Z"/><path class="cls-9" d="M180.6621,295.5109l.0141-.0313a6.2629,6.2629,0,0,1,8.4146-3.1523,6.1947,6.1947,0,0,1,3.25,8.3252l-.0142.0322a6.2629,6.2629,0,0,1-8.415,3.1514A6.194,6.194,0,0,1,180.6621,295.5109Zm9.5966,4.2881.0142-.0323a4.1547,4.1547,0,0,0-2.0244-5.6386,4.1077,4.1077,0,0,0-5.5049,2.2363l-.0146.0322a4.1561,4.1561,0,0,0,2.0244,5.64A4.1086,4.1086,0,0,0,190.2587,299.799Z"/><path class="cls-9" d="M212.436,301.1408l-3.8618-.4463.2275-1.9737,9.8545,1.1368-.228,1.9746-3.8618-.4453-1.1714,10.1484-2.13-.2461Z"/><path class="cls-9" d="M237.0356,298.6974l1.958-.3379,7.3789,11.2012-2.2334.3848-1.72-2.6934-5.6875.9805-.7363,3.1162-2.1651.373Zm4.2871,6.8154-2.9072-4.4531-1.2334,5.166Z"/><path class="cls-9" d="M258.7973,292.3566l1.8945-1.0059,2.38,4.4805,5.1416-2.7314-2.38-4.4805,1.8935-1.0059,5.7256,10.7774-1.8936,1.0058-2.413-4.542-5.1426,2.7315,2.4131,4.542-1.8936,1.0058Z"/><path class="cls-9" d="M284.0159,419.4806l-2.7218.6442-3.8883-14.4942-10.8224,2.8344.4536,2.3191c2.3978,13.1414.13,13.077.13,13.077l-1.8145.4509,1.8145,6.7877,3.0458-.9212-1.1664-4.0628,12.637-3.221,1.162,4.0585,2.9855-.8375ZM270.9922,422.86s.9534-7.24-.8009-12.699l4.6525-1.213,3.2033,11.9408Z"/><circle class="cls-9" cx="25.4831" cy="191.6218" r="7.897"/><circle class="cls-9" cx="421.0069" cy="191.6218" r="7.897"/><circle class="cls-9" cx="223.538" cy="140.0695" r="3.3035"/><circle class="cls-9" cx="160.3948" cy="275.407" r="3.3035"/><circle class="cls-9" cx="286.8938" cy="275.407" r="3.3035"/></g></g></svg>